<?xml version="1.0" encoding="UTF-8" standalone="no"?>
<!-- Created with Inkscape (http://www.inkscape.org/) -->

<svg
   xmlns:dc="http://purl.org/dc/elements/1.1/"
   xmlns:cc="http://creativecommons.org/ns#"
   xmlns:rdf="http://www.w3.org/1999/02/22-rdf-syntax-ns#"
   xmlns:svg="http://www.w3.org/2000/svg"
   xmlns="http://www.w3.org/2000/svg"
   xmlns:sodipodi="http://sodipodi.sourceforge.net/DTD/sodipodi-0.dtd"
   xmlns:inkscape="http://www.inkscape.org/namespaces/inkscape"
   sodipodi:docname="smoke.svg"
   inkscape:version="0.92.3 (2405546, 2018-03-11)"
   width="210mm"
   height="297mm"
   viewBox="0 0 210 297"
   version="1.1"
   id="svg8"
   inkscape:export-filename="D:\workspaces\unity\trainhard\Assets\Art\effects\steam_cloud.png"
   inkscape:export-xdpi="96"
   inkscape:export-ydpi="96">
  <defs
     id="defs2" />
  <sodipodi:namedview
     id="base"
     pagecolor="#ffffff"
     bordercolor="#666666"
     borderopacity="1.0"
     inkscape:pageopacity="0.0"
     inkscape:pageshadow="2"
     inkscape:zoom="0.98994949"
     inkscape:cx="459.80118"
     inkscape:cy="695.37592"
     inkscape:document-units="mm"
     inkscape:current-layer="layer1"
     showgrid="false"
     inkscape:snap-global="false"
     inkscape:window-width="1920"
     inkscape:window-height="1017"
     inkscape:window-x="-8"
     inkscape:window-y="-8"
     inkscape:window-maximized="1" />
  <metadata
     id="metadata5">
    <rdf:RDF>
      <cc:Work
         rdf:about="">
        <dc:format>image/svg+xml</dc:format>
        <dc:type
           rdf:resource="http://purl.org/dc/dcmitype/StillImage" />
        <dc:title></dc:title>
      </cc:Work>
    </rdf:RDF>
  </metadata>
  <g
     inkscape:label="Layer 1"
     inkscape:groupmode="layer"
     id="layer1">
    <path
       transform="translate(-8.6934524,65.389881)"
       style="opacity:0.78699999;fill:#e4e4e4;fill-opacity:1;fill-rule:nonzero;stroke:none;stroke-width:0.50006247;stroke-linejoin:round;stroke-miterlimit:4;stroke-dasharray:none;stroke-opacity:1"
       inkscape:transform-center-x="-0.61976879"
       inkscape:transform-center-y="-0.52902065"
       d="m 103.3502,30.601174 c -0.61208,0.852905 -2.352,0.03364 -3.03871,0.827693 -0.660873,0.764172 -0.455671,2.002316 -0.366475,3.008674 0.115225,1.300002 1.743875,2.580766 1.149605,3.742716 -0.69119,1.351463 -3.206308,0.424047 -4.312164,1.463893 -1.038723,0.976721 -0.420806,3.189114 -1.621397,3.958212 -1.267187,0.811758 -3.007692,-0.269225 -4.510607,-0.192002 -2.379119,0.122244 -4.876958,1.960948 -7.071552,1.034174 -1.228347,-0.51873 -1.197168,-2.562271 -2.345086,-3.240654 -1.431751,-0.846118 -3.328456,-0.249883 -4.951463,-0.612759 -1.270882,-0.284147 -3.028015,-0.10913 -3.712365,-1.217077 -0.832533,-1.347851 1.194801,-3.196924 0.697858,-4.701206 -0.74237,-2.24721 -4.585803,-2.693633 -5.020932,-5.019945 -0.254165,-1.358831 1.484021,-2.424844 1.674673,-3.794031 0.267446,-1.920685 -1.755232,-4.070636 -0.805853,-5.761565 0.799452,-1.423898 3.713761,-0.512986 4.495556,-1.946656 0.98141,-1.799728 -2.453661,-4.620079 -1.002127,-6.067572 2.009319,-2.003724 5.773126,2.495356 8.39527,1.41063 1.671634,-0.69152 1.45122,-3.8027867 3.152606,-4.4174795 1.13124,-0.4087052 2.286674,0.9044373 3.48939,0.9191561 1.279828,0.015662 2.471948,-1.0882815 3.735934,-0.8869261 1.190639,0.1896709 1.966564,1.4382475 3.085361,1.8875685 1.799523,0.722708 4.005788,0.268134 5.684038,1.239765 0.74013,0.428502 1.58659,1.057281 1.7223,1.901667 0.20277,1.261681 -1.68129,2.23327 -1.55352,3.504737 0.20215,2.011587 2.32327,3.309577 3.51197,4.944918 0.456,0.627339 1.38718,1.091311 1.38861,1.866869 0.002,1.162659 -1.74117,1.691542 -2.07136,2.80633 -0.31683,1.069691 0.8509,2.43449 0.20044,3.34087 z"
       id="path819"
       inkscape:connector-curvature="0"
       sodipodi:nodetypes="aaaaaaaaaaaaaaaaaaaaaaaaaaaaa"
       inkscape:export-filename="D:\workspaces\unity\trainhard\Assets\Art\effects\steam_cloud.png"
       inkscape:export-xdpi="96"
       inkscape:export-ydpi="96" />
    <path
       style="fill:#cccccc;stroke:none;stroke-width:0.26458332px;stroke-linecap:butt;stroke-linejoin:miter;stroke-opacity:1;fill-opacity:1"
       d="m 55.296016,214.50228 c -0.528929,-2.44186 -4.613759,-2.25805 -6.236602,-4.15774 -2.251968,-2.63614 -4.835603,-6.01698 -4.34673,-9.44941 0.352634,-2.47588 4.01713,-3.335 4.91369,-5.66964 1.174586,-3.05862 -2.126884,-7.50973 0.18899,-9.82738 2.226837,-2.22855 6.323745,-0.58325 9.44941,-0.18898 2.335219,0.29456 4.527279,2.48867 6.803564,1.88988 2.240129,-0.58927 2.753197,-4.07843 4.913696,-4.91369 2.470622,-0.95516 5.796174,1.93715 7.937496,0.37797 2.53252,-1.84402 0.489506,-6.63346 2.456844,-9.07142 1.291653,-1.60064 3.463683,-2.43204 5.48066,-2.83482 4.46331,-0.8913 9.590396,-1.00649 13.607136,1.13392 2.84787,1.51755 3.78873,5.25502 6.04762,7.55953 0.68882,0.70274 1.30189,1.70223 2.26786,1.88988 1.81877,0.35331 3.44892,-1.89337 5.29166,-1.70089 3.53599,0.36934 7.65268,2.12072 9.26042,5.29166 1.26153,2.48812 0.10592,5.73131 -0.94494,8.31547 -1.20092,2.95316 -5.49501,4.39233 -5.85863,7.55953 -0.29258,2.54837 3.76191,4.48692 3.2128,6.99256 -0.49732,2.26932 -4.7963,2.26596 -5.29167,4.53571 -0.38466,1.76244 1.7054,3.19969 2.26786,4.91369 0.88215,2.68818 2.70873,5.67186 1.70089,8.31548 -0.76972,2.01903 -3.04896,3.64161 -5.19718,3.87425 -2.88709,0.31267 -5.16001,-2.74303 -7.93749,-3.59077 -1.98603,-0.60617 -4.5353,-2.35471 -6.142113,-1.03944 -1.560673,1.27751 1.225453,4.60989 -0.188986,6.04763 -1.39323,1.41619 -3.978634,0.50268 -5.95313,0.28348 -2.24049,-0.24873 -4.310671,-2.24279 -6.520082,-1.7954 -1.49464,0.30266 -2.875475,1.48803 -3.590775,2.83483 -0.800001,1.50629 0.571693,3.68598 -0.377981,5.10268 -1.568691,2.34013 -4.745427,3.91346 -7.559519,3.77976 -3.561802,-0.16923 -7.193277,-2.63853 -9.07143,-5.66964 -1.366865,-2.20595 1.051086,-5.88595 -0.755958,-7.74851 -1.724775,-1.77776 -5.075367,-0.0135 -7.370532,-0.94494 -2.626769,-1.06597 -6.280541,-2.31653 -6.80357,-5.10268 -0.506362,-2.69737 4.927728,-4.31028 4.346722,-6.99256 z"
       id="path823"
       inkscape:connector-curvature="0"
       sodipodi:nodetypes="aaaaaaaaaaaaaaaaaaaaaaaaaaaaaaaaaaaa"
       inkscape:export-xdpi="96"
       inkscape:export-ydpi="96" />
    <path
       sodipodi:nodetypes="aaaaaaaaaaaaaaaaaaaaaaaaa"
       inkscape:connector-curvature="0"
       id="path1039"
       d="m 66.182919,203.68333 c 0.06161,-0.85818 -0.797524,-1.54405 -0.996162,-2.3812 -0.433745,-1.82799 -1.298369,-3.97654 -0.392642,-5.62255 0.653376,-1.1874 2.368878,-1.31888 3.577854,-1.93141 2.239993,-1.1349 4.295346,-3.24945 6.806343,-3.22856 1.235133,0.0103 2.090733,1.53455 3.321089,1.64357 1.106107,0.098 2.094553,-0.81435 3.198998,-0.92958 1.42175,-0.14835 2.876257,0.60888 4.276385,0.32077 2.202639,-0.45326 3.733206,-3.07929 5.981631,-3.11988 2.466613,-0.0445 4.927298,1.44877 6.681353,3.18355 1.249824,1.23609 1.123119,3.44871 2.320852,4.73534 0.81281,0.87314 2.40413,0.82652 3.09273,1.80064 1.66277,2.35215 2.55699,5.77101 1.60787,8.49069 -0.53545,1.53435 -2.92743,1.75087 -3.69053,3.18566 -0.58048,1.09142 0.32903,2.71449 -0.43998,3.68237 -0.78323,0.98578 -2.577294,0.48744 -3.552159,1.28424 -1.319568,1.07852 -1.166234,3.54642 -2.660453,4.36604 -1.43076,0.78482 -3.311216,-0.49312 -4.894632,-0.0984 -1.42633,0.35557 -2.390388,1.98678 -3.851513,2.14791 -1.982177,0.21859 -3.745959,-1.85671 -5.734394,-1.70527 -1.408829,0.10728 -2.420361,1.83325 -3.833073,1.80953 -3.023731,-0.0508 -6.508183,-1.5565 -8.069503,-4.14645 -0.821236,-1.36227 0.645977,-3.29566 0.05311,-4.77172 -0.883924,-2.2007 -4.699738,-2.72778 -4.978287,-5.08295 -0.165757,-1.40149 2.074063,-2.22471 2.175115,-3.63235 z"
       style="fill:#999999;fill-opacity:1;stroke:none;stroke-width:0.26458332px;stroke-linecap:butt;stroke-linejoin:miter;stroke-opacity:1"
       inkscape:export-xdpi="96"
       inkscape:export-ydpi="96" />
  </g>
</svg>
